HIERARCHY
ROOT Hips
{
	OFFSET	0.000000	0.000000	0.000000
	CHANNELS 6 Xposition Yposition Zposition Zrotation Xrotation Yrotation
	JOINT LeftHip
	{
		OFFSET	4.740440	-3.195970	-0.322709
		CHANNELS 3 Zrotation Xrotation Yrotation
		JOINT LeftKnee
		{
			OFFSET	-1.605680	-15.592300	1.005510
			CHANNELS 3 Zrotation Xrotation Yrotation
			JOINT LeftAnkle
			{
				OFFSET	-0.632401	-16.421000	-1.413730
				CHANNELS 3 Zrotation Xrotation Yrotation
				End Site
				{
					OFFSET	0.008423	-2.933000	-1.776750
				}
			}
		}
	}
	JOINT RightHip
	{
		OFFSET	-4.740440	-3.195970	-0.322709
		CHANNELS 3 Zrotation Xrotation Yrotation
		JOINT RightKnee
		{
			OFFSET	1.605680	-15.592300	1.005510
			CHANNELS 3 Zrotation Xrotation Yrotation
			JOINT RightAnkle
			{
				OFFSET	0.632401	-16.421000	-1.413730
				CHANNELS 3 Zrotation Xrotation Yrotation
				End Site
				{
					OFFSET	-0.008423	-2.933000	-1.776750
				}
			}
		}
	}
	JOINT Chest
	{
		OFFSET	0.000000	3.468200	0.078401
		CHANNELS 3 Zrotation Xrotation Yrotation
		JOINT LeftCollar
		{
			OFFSET	3.857650	15.070700	-0.011583
			CHANNELS 3 Zrotation Xrotation Yrotation
			JOINT LeftShoulder
			{
				OFFSET	3.979720	-1.940530	-0.165223
				CHANNELS 3 Zrotation Xrotation Yrotation
				JOINT LeftElbow
				{
					OFFSET	0.615844	-10.986600	-0.673886
					CHANNELS 3 Zrotation Xrotation Yrotation
					JOINT LeftWrist
					{
						OFFSET	0.826843	-10.854500	1.034220
						CHANNELS 3 Zrotation Xrotation Yrotation
						End Site
						{
							OFFSET	-1.679080	-8.456540	0.936217
						}
					}
				}
			}
		}
		JOINT RightCollar
		{
			OFFSET	-3.857650	15.070700	-0.011583
			CHANNELS 3 Zrotation Xrotation Yrotation
			JOINT RightShoulder
			{
				OFFSET	-3.979720	-1.940530	-0.165223
				CHANNELS 3 Zrotation Xrotation Yrotation
				JOINT RightElbow
				{
					OFFSET	-0.615845	-10.986600	-0.673886
					CHANNELS 3 Zrotation Xrotation Yrotation
					JOINT RightWrist
					{
						OFFSET	-0.826843	-10.854500	1.034220
						CHANNELS 3 Zrotation Xrotation Yrotation
						End Site
						{
							OFFSET	1.679080	-8.456540	0.936217
						}
					}
				}
			}
		}
		JOINT Neck
		{
			OFFSET	0.000000	15.101400	0.055730
			CHANNELS 3 Zrotation Xrotation Yrotation
			JOINT Head
			{
				OFFSET	0.000000	4.185120	1.488260
				CHANNELS 3 Zrotation Xrotation Yrotation
				End Site
				{
					OFFSET	0.000000	7.773420	-0.106016
				}
			}
		}
	}
}
MOTION
Frames:     21
Frame Time: 0.016667
-1.622162	37.183155	23.802113	5.116919	8.698014	23.341963	9.093932	-0.308280	-4.854300	-20.646591	77.613403	12.249653	11.928637	-15.406436	14.453258	0.330471	-12.449870	-1.125192	0.894373	18.004070	-0.213332	-15.880138	-10.552979	-20.236940	-0.799399	11.786165	-5.162874	-9.610940	0.160191	-3.598366	25.469051	-4.919079	7.307799	-2.051071	-11.902215	-25.875753	40.374500	-15.858958	-40.774700	-14.563494	-4.875556	5.237595	-9.845505	-14.180577	8.442651	10.866389	-22.822845	43.113304	-31.082560	-13.859715	25.175423	-21.322281	-22.196802	-18.211237	11.714677	9.059976	-45.345108	
-1.632819	37.139709	23.742598	4.903537	8.492577	23.394829	8.802112	-1.175177	-4.828985	-20.425890	78.377930	12.373505	12.051390	-15.663168	14.189402	0.693784	-12.682255	-0.568221	0.954194	18.424208	-0.481871	-16.116245	-10.624629	-20.608829	-0.875162	11.959888	-5.007601	-9.823925	0.724320	-2.519479	22.792818	-3.422180	7.351367	-0.409967	-9.867373	-23.372824	39.183727	-10.660895	-39.109608	-14.593896	-4.759542	4.869529	-9.134203	-12.745822	8.758326	10.941474	-22.364897	43.173840	-29.731424	-12.588736	25.175270	-21.206444	-21.573814	-18.267986	11.519793	9.246558	-45.263187	
-1.610421	37.070683	23.665339	4.371871	7.878809	23.513811	8.957617	-1.766764	-5.000314	-18.165947	78.644936	10.084893	11.829963	-15.319507	14.243420	1.475781	-12.589623	-0.197530	0.998366	18.772108	-0.604286	-16.364067	-10.705021	-21.014580	-1.123966	12.546224	-4.562366	-9.414896	1.203565	-1.607052	20.273548	-1.963230	7.876657	0.908562	-8.099258	-21.523596	38.925949	-9.346357	-38.573669	-14.976387	-4.583811	3.819493	-7.036576	-8.394112	9.478228	10.848636	-21.162861	42.763454	-31.958508	-13.803561	24.760717	-20.977402	-19.929287	-18.543976	11.998430	8.488049	-45.152401	
-1.608768	37.037884	23.629047	4.215115	7.667696	23.518112	8.578842	-2.536246	-5.108130	-18.481781	79.256126	10.721765	11.984881	-15.539722	13.959474	1.785358	-12.664413	0.123575	0.992690	19.057409	-0.612430	-16.617599	-10.764241	-21.426916	-1.248351	12.730953	-4.344606	-9.687571	1.557505	-0.502228	18.041159	-0.431473	8.160958	2.090806	-6.579830	-20.082567	38.141510	-8.415661	-38.975677	-15.138269	-4.512582	3.467981	-6.278741	-6.957679	9.572634	10.546770	-17.200165	40.823822	-33.877300	-15.444757	24.449139	-20.937635	-19.392765	-18.616463	11.703480	8.742698	-45.121510	
-1.593810	36.984833	23.563620	3.750259	7.097212	23.544678	8.624686	-3.028416	-5.220142	-14.988292	79.091278	6.760015	11.722727	-14.790702	14.318358	2.540812	-12.460115	0.364065	0.926914	19.186516	-0.547576	-16.803312	-10.774302	-21.678495	-1.671918	13.106880	-3.728972	-9.161910	1.861763	0.268464	15.852867	1.228902	7.956890	3.276608	-5.283333	-18.673677	37.463223	-7.680861	-39.284401	-15.773040	-4.245622	2.496569	-3.738460	-2.883536	9.468438	9.301491	-19.433952	41.272907	-33.659019	-13.837629	24.078514	-20.770851	-17.859938	-18.794378	12.110419	8.238558	-45.143616	
-1.556876	36.937187	23.515713	3.202066	6.618854	23.633347	8.681280	-3.616286	-5.393952	-13.822868	79.416115	5.615478	11.732157	-14.705616	14.256660	3.234510	-12.275628	0.449216	0.932322	19.212523	-0.493444	-16.864534	-10.798631	-21.856810	-1.751531	13.230569	-3.395222	-8.923196	2.263035	1.156419	13.826042	2.895496	7.448297	4.273286	-4.201908	-17.162815	37.167435	-6.828396	-38.752869	-15.585023	-4.033708	2.116469	-2.922764	-1.614299	9.289834	8.329179	-15.741261	38.527428	-35.272728	-15.461147	23.655468	-20.274651	-17.244692	-18.913710	11.716222	8.465918	-45.001698	
-1.539430	36.900162	23.481098	2.766667	6.360032	23.755760	8.545169	-4.364885	-5.586129	-12.666171	79.800888	4.505737	11.737737	-14.632145	14.179285	3.676423	-12.258915	0.509658	1.081643	19.235172	-0.518019	-16.964346	-10.771255	-22.005760	-2.015437	13.130486	-3.153828	-8.529864	2.676831	1.987883	11.782091	4.502913	6.984286	5.097631	-3.244118	-15.659492	36.981110	-5.592708	-37.269409	-16.908737	-3.730533	1.001119	-0.300085	1.728021	8.603643	7.220040	-15.864590	38.371349	-35.741924	-15.257955	23.176821	-20.161190	-15.846745	-19.069420	11.974913	8.020816	-44.768364	
-1.501112	36.860634	23.434563	2.275483	6.048119	23.904438	8.446813	-5.037923	-5.834823	-11.823420	80.170807	3.690669	11.737059	-14.526670	14.111946	4.175592	-12.229511	0.582280	1.185390	19.276451	-0.589487	-16.990240	-10.754599	-22.129244	-1.771679	13.123524	-3.108438	-8.568354	2.873600	2.782609	9.890194	5.947337	6.846284	5.742720	-2.382822	-14.433064	36.580505	-4.003487	-35.579330	-17.427389	-3.623590	0.465758	0.630616	2.716550	8.433989	6.431902	-14.058092	37.059784	-35.775909	-15.074983	22.919014	-20.096975	-15.482569	-19.055859	11.682446	8.232656	-44.714638	
-1.463688	36.831604	23.406948	1.837293	5.681264	24.054804	8.346069	-5.557876	-6.161855	-11.353418	80.515846	3.168697	11.695747	-14.372744	14.032761	4.632333	-12.016747	0.676631	1.341576	19.157681	-0.696717	-17.026047	-10.666971	-22.248238	-2.242147	12.838078	-2.795980	-7.932731	3.382131	3.476529	8.111307	7.160869	6.875782	6.281235	-1.625088	-13.340825	35.739529	-2.559280	-34.639236	-17.217739	-3.114797	-0.003442	1.306881	5.733442	6.197635	6.018848	-14.414894	38.319252	-35.416016	-14.891054	22.930128	-19.882490	-14.488493	-19.055792	12.043868	8.238899	-44.744587	
-1.438088	36.803570	23.388996	1.462272	5.254682	24.189600	8.237782	-5.895297	-6.452144	-10.705916	80.827614	2.449889	11.640247	-14.120441	14.318301	5.139394	-11.705440	0.877322	1.405679	19.014675	-0.890165	-17.021496	-10.578328	-22.361589	-2.003317	12.896096	-2.753750	-7.773904	3.565575	3.799114	7.245658	7.668211	6.926149	6.503781	-1.249467	-12.833789	35.142723	-1.923705	-34.465981	-17.607933	-2.985715	-0.399324	1.940184	5.824302	6.550347	5.087463	-12.413459	36.690163	-35.406036	-16.047541	22.992779	-19.756451	-14.112847	-19.150627	11.999008	8.218198	-44.597443	
-1.404953	36.786495	23.372021	1.156088	4.873739	24.289450	8.059955	-6.150376	-6.701867	-10.429814	81.076256	2.157032	11.546157	-14.162910	13.919591	5.522223	-11.387300	1.072109	1.510332	18.837076	-1.085999	-17.013062	-10.483931	-22.445038	-2.443056	12.449428	-2.372468	-7.458713	3.938528	4.603813	4.997170	9.072119	7.036007	7.181662	-0.241741	-11.468003	32.522743	-0.088804	-34.083076	-17.359022	-2.373392	-0.743688	1.963977	7.797563	4.867150	4.924094	-12.401300	37.289261	-34.340576	-14.376185	23.262918	-19.237099	-12.769048	-19.704334	11.782343	7.946033	-43.890102	
-1.363781	36.773296	23.363762	0.854925	4.522227	24.428867	7.914457	-6.348619	-6.897686	-10.369644	81.229919	2.049095	11.596435	-13.931664	14.129563	5.837970	-11.055041	1.179860	1.659311	18.627125	-1.349146	-17.003155	-10.432049	-22.431803	-2.297687	12.402712	-2.336130	-7.393509	4.010611	4.820337	4.408652	9.492432	7.031151	7.346311	0.019780	-11.056921	31.374586	0.609628	-33.861000	-17.607176	-2.316594	-1.043173	2.227725	8.437757	4.421868	4.264013	-11.381041	36.264854	-33.984039	-15.352761	23.520769	-19.104473	-12.410870	-19.851538	11.756892	7.923809	-43.720062	
-1.319412	36.779747	23.316957	0.605899	4.214581	24.621834	7.761344	-6.497307	-7.054749	-10.669009	81.307808	2.299593	11.563523	-14.010813	13.768819	6.082410	-10.742053	1.216290	1.715152	18.295868	-1.461458	-16.944708	-10.260107	-22.494596	-2.755634	11.813765	-2.115620	-7.205710	4.155539	5.289102	2.975316	10.552281	6.995279	7.622695	0.549850	-9.915394	27.008047	2.991686	-32.821701	-17.261332	-1.730854	-1.221989	2.424259	8.836918	3.964809	3.604344	-10.379684	34.961010	-33.113708	-13.512265	23.023008	-18.794466	-11.636267	-19.958860	11.722133	7.880012	-43.490124	
-1.282362	36.785725	23.321915	0.500468	4.067686	24.720770	7.673688	-6.571919	-7.079039	-11.762533	81.156090	3.200701	11.766586	-13.772553	13.868896	6.137430	-10.526251	1.387723	1.864492	18.106329	-1.702171	-16.931946	-10.205491	-22.532305	-2.828457	11.625284	-2.085084	-7.192024	4.170217	5.399102	2.634325	10.850892	6.992589	7.659761	0.636671	-9.568591	25.240446	3.790249	-32.421974	-17.202887	-1.593693	-1.270782	2.367497	8.836145	3.425404	3.436195	-9.771194	34.533344	-32.667336	-13.222675	22.870604	-18.725954	-11.404979	-20.000759	11.707921	7.888308	-43.396194	
-1.210564	36.792522	23.255333	0.271377	3.603964	24.980970	7.464710	-6.617736	-6.967863	-10.958695	81.279060	2.593322	11.521621	-13.907654	13.611391	6.405745	-10.083145	1.378620	1.836705	17.810493	-1.831238	-16.758799	-10.036852	-22.595737	-3.029176	11.107473	-1.985446	-7.253502	4.047232	5.650232	2.024271	11.556598	6.987685	7.522039	0.585237	-8.563114	19.761671	6.222426	-31.376871	-17.081009	-1.177548	-1.400772	2.663458	8.931931	3.093847	2.148207	-8.662445	31.733444	-30.662424	-12.356421	22.592278	-18.460321	-10.606514	-20.184750	11.660403	7.726294	-42.974800	
-1.176145	36.798199	23.233341	0.194633	3.431714	25.073137	7.444040	-6.582104	-6.897861	-12.845301	80.981010	4.426030	11.779316	-13.668676	13.573205	6.484446	-9.897504	1.433760	1.847171	17.676947	-1.930367	-16.691221	-9.965071	-22.619848	-3.246793	10.636026	-1.844849	-7.131584	4.301937	5.676601	1.950765	11.759477	6.973251	7.419453	0.387594	-8.277409	17.922182	7.051872	-30.997963	-16.844913	-0.721927	-1.404030	2.658996	8.503571	2.852567	1.812596	-7.984256	30.858753	-29.637089	-10.910083	21.721205	-18.341146	-10.114523	-20.254425	11.767054	7.803212	-42.847828	
-1.090413	36.821194	23.156740	0.089307	2.923244	25.454453	7.455407	-6.358757	-6.637941	-12.005281	80.807922	3.652835	11.424179	-13.767447	13.444542	6.619998	-9.336958	1.525702	1.850160	17.302010	-2.313710	-16.510088	-9.741260	-22.627428	-3.202439	10.450049	-1.952353	-7.434588	3.727933	5.799452	1.877226	12.064713	6.743742	7.112438	-0.395122	-7.584112	12.459843	9.110482	-29.644985	-16.712658	-0.772570	-1.400647	2.681884	8.396044	2.696856	0.490654	-7.439874	27.481634	-27.337816	-10.882560	22.528879	-18.266924	-9.662506	-20.345490	11.872065	7.669518	-42.499935	
-1.057696	36.826630	23.134460	0.028254	2.751440	25.546740	7.517866	-6.273890	-6.468262	-12.248729	80.640984	3.912774	11.399363	-13.722705	13.378619	6.685385	-9.154537	1.584944	1.864832	17.182076	-2.426242	-16.442383	-9.677610	-22.649160	-3.219528	10.283731	-1.931698	-7.464503	3.616219	5.807857	1.892559	12.074932	6.648204	6.982615	-0.761490	-7.427211	10.772726	9.621736	-29.204777	-16.584442	-0.716547	-1.351962	2.635967	8.186974	2.595816	0.079443	-7.209303	26.344595	-26.554316	-10.527163	22.394016	-18.241314	-9.480355	-20.358652	11.936450	7.707573	-42.416054	
-0.974704	36.848984	23.047682	-0.051904	2.315337	25.901583	7.648337	-6.001908	-5.941142	-12.575937	79.939484	4.253819	11.301626	-13.529766	13.114993	6.734704	-8.726701	1.761319	1.950088	16.899084	-2.862979	-16.263910	-9.477085	-22.691410	-3.357309	9.742177	-1.942907	-7.558520	3.305178	5.731047	2.192160	11.910910	6.268000	6.354543	-2.218494	-7.118666	6.509108	10.340377	-28.052166	-16.129026	-0.597924	-1.164370	2.437764	7.380537	2.268991	-1.119502	-6.695541	22.726429	-24.512451	-9.608478	21.567358	-18.019794	-8.983058	-20.423971	11.951950	7.834740	-42.148396	
-0.949230	36.856998	23.020998	-0.060153	2.169159	26.022552	7.686248	-5.872139	-5.761804	-12.676179	79.660110	4.338651	11.277194	-13.473228	13.049623	6.736511	-8.571846	1.805005	1.980565	16.804310	-3.007218	-16.213400	-9.414437	-22.696846	-3.406327	9.587481	-1.939283	-7.557868	3.183690	5.669287	2.355168	11.811044	6.083778	6.057295	-2.840205	-7.095243	5.476900	10.354976	-27.702124	-15.967019	-0.592022	-1.112702	2.358074	7.058509	2.101635	-1.486287	-6.607825	21.530708	-23.903542	-9.297992	21.191586	-17.908291	-8.809464	-20.414433	11.952893	7.851999	-42.084599	
-0.893270	36.874821	22.920706	0.001709	1.727469	26.389397	7.865788	-5.441049	-5.300563	-13.258604	78.650230	4.856301	11.116559	-13.289193	12.870307	6.688320	-8.212321	1.872257	2.036561	16.731176	-3.417819	-16.011801	-9.320225	-22.725483	-3.570455	9.175960	-1.920300	-7.614268	2.806828	5.454807	3.112460	11.353666	5.510342	5.051561	-5.153763	-7.533546	3.665841	9.774403	-26.813662	-15.469610	-0.597455	-0.970695	1.970128	5.950963	1.404853	-2.424007	-6.724279	18.074911	-22.073494	-8.343817	20.132990	-17.505211	-8.282519	-20.539684	11.897606	7.825536	-41.862022	
